<svg xmlns="http://www.w3.org/2000/svg" xmlns:xlink="http://www.w3.org/1999/xlink" width="220" height="220" viewBox="0 0 220 220" version="1.1">
    <g>
        <path style=" stroke:none;fill-rule:nonzero;fill:rgb(0%,33.333333%,66.666667%);fill-opacity:1;" d="M 101.191406 0.429688 C 75.839844 2.578125 52.078125 13.320312 33.773438 30.9375 C 15.597656 48.46875 4.339844 71.070312 0.816406 97.109375 C 0 103.082031 0.128906 118.078125 1.03125 124.394531 C 3.910156 144.375 11.945312 163.324219 24.0625 178.535156 C 38.757812 196.96875 60.242188 210.804688 83.144531 216.5625 C 92.382812 218.882812 99.214844 219.699219 109.785156 219.699219 C 123.363281 219.742188 132.515625 218.28125 145.320312 213.984375 C 161.433594 208.613281 175.097656 200.105469 187.601562 187.601562 C 204.789062 170.371094 215.058594 149.960938 218.753906 125.8125 C 219.484375 120.957031 219.699219 117.691406 219.699219 110.214844 C 219.742188 96.59375 218.238281 87.3125 213.941406 74.636719 C 200.621094 35.148438 166.246094 6.960938 124.351562 1.074219 C 118.808594 0.257812 106.777344 -0.0429688 101.191406 0.429688 Z M 169.167969 73.992188 C 169.039062 74.292969 163.023438 90.019531 155.761719 108.925781 C 148.5 127.832031 142.269531 144.03125 141.925781 144.890625 L 141.28125 146.523438 L 133.761719 146.523438 L 147.425781 110.945312 C 154.945312 91.394531 161.304688 74.980469 161.5625 74.421875 C 161.949219 73.5625 162.25 73.476562 165.6875 73.476562 C 168.480469 73.476562 169.339844 73.605469 169.167969 73.992188 Z M 43.054688 90.40625 C 50.789062 92.082031 56.246094 97.410156 56.804688 103.984375 L 56.933594 105.488281 L 48.253906 105.746094 L 47.953125 104.027344 C 47.394531 100.460938 43.527344 97.582031 38.800781 97.195312 C 32.183594 96.679688 27.414062 100.117188 28.058594 104.972656 C 28.53125 108.539062 30.25 109.570312 39.402344 111.976562 C 42.667969 112.792969 46.320312 113.910156 47.480469 114.425781 C 52.292969 116.445312 55.386719 119.195312 56.761719 122.675781 C 57.40625 124.394531 57.40625 129.207031 56.71875 131.269531 C 55.386719 135.351562 51.691406 138.746094 46.621094 140.550781 C 43.011719 141.796875 36.007812 142.140625 32.097656 141.195312 C 24.191406 139.347656 18.433594 133.804688 17.703125 127.359375 L 17.488281 125.46875 L 26.125 125.46875 L 26.597656 127.402344 C 27.199219 129.894531 29.304688 132.214844 32.011719 133.460938 C 33.730469 134.277344 34.890625 134.492188 37.8125 134.492188 C 41.9375 134.492188 43.742188 134.105469 45.804688 132.6875 C 47.695312 131.398438 48.554688 129.765625 48.554688 127.53125 C 48.554688 123.0625 45.976562 121.214844 36.394531 118.808594 C 23.546875 115.628906 18.820312 111.289062 19.421875 103.425781 C 19.679688 100.117188 20.925781 97.625 23.503906 95.132812 C 28.058594 90.707031 35.707031 88.859375 43.054688 90.40625 Z M 202.339844 90.449219 C 202.640625 90.578125 202.8125 92.296875 202.8125 94.574219 L 202.8125 98.398438 L 199.203125 98.398438 C 193.617188 98.398438 190.4375 99.859375 188.160156 103.46875 L 186.914062 105.445312 L 186.914062 140.9375 L 178.320312 140.9375 L 178.320312 90.664062 L 186.914062 90.664062 L 186.914062 96.25 L 188.460938 94.53125 C 191.425781 91.265625 195.207031 89.675781 199.460938 89.976562 C 200.792969 90.0625 202.082031 90.277344 202.339844 90.449219 Z M 75.96875 103.855469 C 77.902344 111.160156 80.09375 119.453125 80.824219 122.375 C 81.597656 125.253906 82.242188 127.574219 82.328125 127.53125 C 82.371094 127.445312 84.863281 119.582031 87.828125 110 C 90.835938 100.417969 93.457031 92.167969 93.671875 91.609375 C 94.058594 90.75 94.359375 90.664062 97.453125 90.664062 L 100.804688 90.664062 L 106.5625 109.011719 C 109.699219 119.152344 112.363281 127.574219 112.492188 127.789062 C 112.621094 128.003906 114.8125 120.054688 117.347656 110.085938 C 119.882812 100.117188 122.03125 91.652344 122.203125 91.308594 C 122.546875 90.363281 130.625 90.363281 130.625 91.308594 C 130.625 91.652344 127.445312 102.824219 123.535156 116.1875 C 119.625 129.550781 116.445312 140.59375 116.445312 140.722656 C 116.445312 140.851562 114.855469 140.9375 112.878906 140.9375 L 109.3125 140.9375 L 103.253906 122.203125 L 97.195312 103.425781 L 96.550781 105.53125 C 96.164062 106.691406 93.800781 114.210938 91.308594 122.246094 C 88.816406 130.28125 86.453125 137.757812 86.109375 138.875 L 85.421875 140.9375 L 78.375 140.9375 L 71.199219 116.101562 C 67.246094 102.480469 64.023438 91.179688 64.023438 90.964844 C 64.023438 90.792969 65.914062 90.664062 68.277344 90.664062 L 72.488281 90.664062 Z M 75.96875 103.855469 " />
    </g>
</svg>